<svg width="80" height="80" viewBox="0 0 80 80" fill="none" xmlns="http://www.w3.org/2000/svg">
<path d="M0 40C0 17.9086 17.9086 0 40 0C62.0914 0 80 17.9086 80 40C80 62.0914 62.0914 80 40 80C17.9086 80 0 62.0914 0 40Z" fill="#0A0D12"/>
<path d="M40 15C33.45 15 28.125 20.325 28.125 26.875C28.125 33.3 33.15 38.5 39.7 38.725C39.9 38.7 40.1 38.7 40.25 38.725C40.3 38.725 40.325 38.725 40.375 38.725C40.4 38.725 40.4 38.725 40.425 38.725C46.825 38.5 51.85 33.3 51.875 26.875C51.875 20.325 46.55 15 40 15Z" fill="#FDFDFD"/>
<path d="M52.6999 45.3742C45.7249 40.7242 34.3499 40.7242 27.3249 45.3742C24.1499 47.4992 22.3999 50.3742 22.3999 53.4492C22.3999 56.5242 24.1499 59.3742 27.2999 61.4742C30.7999 63.8242 35.3999 64.9992 39.9999 64.9992C44.5999 64.9992 49.1999 63.8242 52.6999 61.4742C55.8499 59.3492 57.5999 56.4992 57.5999 53.3992C57.5749 50.3242 55.8499 47.4742 52.6999 45.3742Z" fill="#FDFDFD"/>
</svg>
